<?xml version="1.0" standalone="no"?>
<!DOCTYPE svg PUBLIC "-//W3C//DTD SVG 20010904//EN"
 "http://www.w3.org/TR/2001/REC-SVG-20010904/DTD/svg10.dtd">
<svg version="1.0" xmlns="http://www.w3.org/2000/svg"
 width="1024.000000pt" height="1024.000000pt" viewBox="0 0 1024.000000 1024.000000"
 preserveAspectRatio="xMidYMid meet">

<g transform="translate(0.000000,1024.000000) scale(0.100000,-0.100000)"
fill="#000000" stroke="none">
<path d="M4959 8149 c-197 -29 -395 -110 -545 -223 -79 -59 -219 -206 -273
-285 -92 -135 -167 -331 -190 -495 -6 -43 -11 -156 -11 -252 l0 -174 -342 0
c-326 0 -344 -1 -385 -21 -47 -23 -89 -67 -109 -115 -7 -17 -22 -147 -34 -290
-11 -142 -32 -394 -45 -559 -14 -165 -36 -444 -50 -620 -14 -176 -47 -606 -75
-955 -101 -1279 -110 -1396 -110 -1500 0 -122 16 -196 63 -284 39 -75 163
-202 233 -238 115 -61 -6 -58 2024 -58 2046 0 1907 -4 2034 62 85 44 204 166
244 249 63 128 72 209 52 470 -14 183 -85 1066 -115 1439 -81 998 -96 1174
-110 1360 -8 113 -17 230 -20 260 -3 30 -12 143 -20 250 -30 378 -33 400 -60
446 -26 45 -63 76 -111 95 -19 7 -143 10 -370 9 l-341 -1 -6 213 c-8 285 -32
395 -124 583 -111 225 -296 404 -538 520 -212 102 -459 145 -666 114z m328
-308 c270 -56 510 -249 629 -507 59 -127 76 -224 78 -429 l1 -180 -879 -3
-879 -2 6 192 c4 147 10 212 25 273 83 328 349 590 668 658 98 22 241 20 351
-2z m-1111 -1760 c123 -56 148 -229 46 -327 -53 -51 -141 -69 -209 -43 -69 26
-123 109 -123 189 0 148 150 243 286 181z m2062 0 c72 -37 112 -102 112 -181
0 -150 -152 -244 -288 -179 -50 25 -86 73 -102 140 -20 82 20 174 95 216 51
29 131 31 183 4z"/>
</g>
</svg>
